<mxfile host="app.diagrams.net" agent="Mozilla/5.0 (Windows NT 10.0; Win64; x64) AppleWebKit/537.36 (KHTML, like Gecko) Chrome/131.0.0.0 Safari/537.36" version="24.7.7">
  <diagram name="第 1 页" id="8-FC0ekU5G2PwA24ZTK7">
    <mxGraphModel dx="1050" dy="557" grid="1" gridSize="10" guides="1" tooltips="1" connect="1" arrows="1" fold="1" page="1" pageScale="1" pageWidth="1920" pageHeight="1200" math="0" shadow="0">
      <root>
        <mxCell id="0" />
        <mxCell id="1" parent="0" />
        <mxCell id="kfRrEzEhlHXIg2XS9ukm-1" value="" style="rounded=0;whiteSpace=wrap;html=1;" vertex="1" parent="1">
          <mxGeometry x="7.5" y="40" width="420" height="1120" as="geometry" />
        </mxCell>
        <mxCell id="kfRrEzEhlHXIg2XS9ukm-4" value="" style="rounded=0;whiteSpace=wrap;html=1;" vertex="1" parent="1">
          <mxGeometry x="580" y="30" width="230" height="710" as="geometry" />
        </mxCell>
        <mxCell id="kfRrEzEhlHXIg2XS9ukm-17" style="edgeStyle=orthogonalEdgeStyle;rounded=0;orthogonalLoop=1;jettySize=auto;html=1;exitX=0.5;exitY=1;exitDx=0;exitDy=0;entryX=0.5;entryY=0;entryDx=0;entryDy=0;" edge="1" parent="1" source="kfRrEzEhlHXIg2XS9ukm-5" target="kfRrEzEhlHXIg2XS9ukm-6">
          <mxGeometry relative="1" as="geometry" />
        </mxCell>
        <mxCell id="kfRrEzEhlHXIg2XS9ukm-5" value="&lt;div&gt;&lt;b style=&quot;&quot;&gt;&lt;font style=&quot;font-size: 12px;&quot;&gt;&lt;br&gt;&lt;/font&gt;&lt;/b&gt;&lt;/div&gt;&lt;b style=&quot;&quot;&gt;&lt;font style=&quot;font-size: 12px;&quot;&gt;根据资源池名称获取对应资源池的regionID和zoneList&lt;/font&gt;&lt;/b&gt;&lt;div style=&quot;&quot;&gt;&lt;font style=&quot;font-size: 12px;&quot;&gt;依赖OpenAPI：弹性云主机-资源池列表查询&lt;/font&gt;&lt;/div&gt;&lt;div style=&quot;&quot;&gt;&lt;font style=&quot;font-size: 12px;&quot;&gt;&lt;span style=&quot;background-color: rgb(255, 255, 255); color: rgb(51, 51, 51); font-family: &amp;quot;microsoft yahei&amp;quot;, helvetia, &amp;quot;pingfang sc&amp;quot;, Arial, Tahoma; text-align: left;&quot;&gt;https://ctecs-global.ctapi.ctyun.cn/v4/region/list-regions&lt;/span&gt;&lt;/font&gt;&lt;/div&gt;&lt;div&gt;&lt;span style=&quot;background-color: initial; color: rgba(0, 0, 0, 0); font-family: monospace; font-size: 0px; text-align: start; text-wrap-mode: nowrap;&quot;&gt;%3CmxGraphModel%3E%3Croot%3E%3CmxCell%20id%3D%220%22%2F%3E%3CmxCell%20id%3D%221%22%20parent%3D%220%22%2F%3E%3CmxCell%20id%3D%222%22%20value%3D%22%E6%9F%A5%E8%AF%A2%E5%AF%B9%E5%BA%94%E8%B5%84%E6%BA%90%E6%B1%A0%E4%B8%8B%E4%BA%91%E4%B8%BB%E6%9C%BA%E8%A7%84%E6%A0%BC%E8%B5%84%E6%BA%90%22%20style%3D%22rounded%3D0%3BwhiteSpace%3Dwrap%3Bhtml%3D1%3B%22%20vertex%3D%221%22%20parent%3D%221%22%3E%3CmxGeometry%20x%3D%2232.5%22%20y%3D%22370%22%20width%3D%22185%22%20height%3D%2240%22%20as%3D%22geometry%22%2F%3E%3C%2FmxCell%3E%3C%2Froot%3E%3C%2FmxGraphModel%3E&lt;/span&gt;&lt;/div&gt;" style="rounded=0;whiteSpace=wrap;html=1;" vertex="1" parent="1">
          <mxGeometry x="25" y="40" width="385" height="50" as="geometry" />
        </mxCell>
        <mxCell id="kfRrEzEhlHXIg2XS9ukm-19" style="edgeStyle=orthogonalEdgeStyle;rounded=0;orthogonalLoop=1;jettySize=auto;html=1;exitX=0.5;exitY=1;exitDx=0;exitDy=0;entryX=0.5;entryY=0;entryDx=0;entryDy=0;" edge="1" parent="1" source="kfRrEzEhlHXIg2XS9ukm-6" target="kfRrEzEhlHXIg2XS9ukm-18">
          <mxGeometry relative="1" as="geometry" />
        </mxCell>
        <mxCell id="kfRrEzEhlHXIg2XS9ukm-6" value="&lt;b&gt;在对应资源池下创建虚拟私有云VPC，获取&lt;span style=&quot;color: rgb(24, 24, 24); font-family: &amp;quot;microsoft yahei&amp;quot;, helvetia, &amp;quot;pingfang sc&amp;quot;, Arial, Tahoma; text-align: start; background-color: rgb(255, 255, 255);&quot;&gt;vpcID&lt;/span&gt;&lt;/b&gt;&lt;div&gt;依赖OpenAPI:虚拟私有云-创建VPC&lt;/div&gt;&lt;div&gt;&lt;span style=&quot;color: rgb(51, 51, 51); font-family: &amp;quot;microsoft yahei&amp;quot;, helvetia, &amp;quot;pingfang sc&amp;quot;, Arial, Tahoma; text-align: left; background-color: rgb(255, 255, 255);&quot;&gt;https://ctvpc-global.ctapi.ctyun.cn/v4/vpc/create&lt;/span&gt;&lt;/div&gt;" style="rounded=0;whiteSpace=wrap;html=1;" vertex="1" parent="1">
          <mxGeometry x="25" y="110" width="385" height="50" as="geometry" />
        </mxCell>
        <mxCell id="kfRrEzEhlHXIg2XS9ukm-22" style="edgeStyle=orthogonalEdgeStyle;rounded=0;orthogonalLoop=1;jettySize=auto;html=1;exitX=0.5;exitY=1;exitDx=0;exitDy=0;entryX=0.5;entryY=0;entryDx=0;entryDy=0;" edge="1" parent="1" source="kfRrEzEhlHXIg2XS9ukm-18" target="kfRrEzEhlHXIg2XS9ukm-20">
          <mxGeometry relative="1" as="geometry" />
        </mxCell>
        <mxCell id="kfRrEzEhlHXIg2XS9ukm-18" value="&lt;b&gt;在创建的虚拟私有云VPC内创建子网，获取subnetID&lt;/b&gt;&lt;br&gt;&lt;div&gt;依赖OpenAPI:虚拟私有云-创建子网&lt;/div&gt;&lt;div&gt;&lt;span style=&quot;color: rgb(51, 51, 51); font-family: &amp;quot;microsoft yahei&amp;quot;, helvetia, &amp;quot;pingfang sc&amp;quot;, Arial, Tahoma; text-align: left; background-color: rgb(255, 255, 255);&quot;&gt;https://ctvpc-global.ctapi.ctyun.cn&lt;/span&gt;&lt;span style=&quot;background-color: rgb(255, 255, 255); color: rgb(51, 51, 51); font-family: &amp;quot;microsoft yahei&amp;quot;, helvetia, &amp;quot;pingfang sc&amp;quot;, Arial, Tahoma; text-align: start;&quot;&gt;/v4/vpc/create-subnet&lt;/span&gt;&lt;/div&gt;" style="rounded=0;whiteSpace=wrap;html=1;" vertex="1" parent="1">
          <mxGeometry x="25" y="180" width="385" height="50" as="geometry" />
        </mxCell>
        <mxCell id="kfRrEzEhlHXIg2XS9ukm-20" value="" style="rounded=0;whiteSpace=wrap;html=1;" vertex="1" parent="1">
          <mxGeometry x="25" y="250" width="385" height="140" as="geometry" />
        </mxCell>
        <mxCell id="kfRrEzEhlHXIg2XS9ukm-29" style="edgeStyle=orthogonalEdgeStyle;rounded=0;orthogonalLoop=1;jettySize=auto;html=1;exitX=0.5;exitY=1;exitDx=0;exitDy=0;entryX=0.5;entryY=0;entryDx=0;entryDy=0;" edge="1" parent="1" source="kfRrEzEhlHXIg2XS9ukm-24" target="kfRrEzEhlHXIg2XS9ukm-25">
          <mxGeometry relative="1" as="geometry" />
        </mxCell>
        <mxCell id="kfRrEzEhlHXIg2XS9ukm-24" value="&lt;b&gt;在对应资源池下创建EIP，获取&lt;/b&gt;&lt;span style=&quot;color: rgb(24, 24, 24); font-family: &amp;quot;microsoft yahei&amp;quot;, helvetia, &amp;quot;pingfang sc&amp;quot;, Arial, Tahoma; text-align: start; background-color: rgb(255, 255, 255);&quot;&gt;&lt;b&gt;eipID&lt;/b&gt;&lt;/span&gt;&lt;br&gt;&lt;div&gt;依赖OpenAPI:虚拟私有云-创建EIP&lt;/div&gt;&lt;div style=&quot;&quot;&gt;&lt;span style=&quot;color: rgb(51, 51, 51); font-family: &amp;quot;microsoft yahei&amp;quot;, helvetia, &amp;quot;pingfang sc&amp;quot;, Arial, Tahoma; text-align: left; background-color: rgb(255, 255, 255);&quot;&gt;https://ctvpc-global.ctapi.ctyun.cn&lt;/span&gt;&lt;span style=&quot;background-color: rgb(255, 255, 255); color: rgb(51, 51, 51); font-family: &amp;quot;microsoft yahei&amp;quot;, helvetia, &amp;quot;pingfang sc&amp;quot;, Arial, Tahoma; text-align: start;&quot;&gt;/&lt;/span&gt;&lt;span style=&quot;background-color: rgb(255, 255, 255); color: rgb(51, 51, 51); font-family: &amp;quot;microsoft yahei&amp;quot;, helvetia, &amp;quot;pingfang sc&amp;quot;, Arial, Tahoma; text-align: start;&quot;&gt;v4/eip/create&lt;/span&gt;&lt;/div&gt;" style="rounded=0;whiteSpace=wrap;html=1;" vertex="1" parent="1">
          <mxGeometry x="31.25" y="260" width="372.5" height="50" as="geometry" />
        </mxCell>
        <mxCell id="kfRrEzEhlHXIg2XS9ukm-25" value="&lt;b&gt;查询获取创建EIP的eipAddress&lt;/b&gt;&lt;br&gt;&lt;div&gt;依赖OpenAPI:虚拟私有云-创建EIP&lt;/div&gt;&lt;div style=&quot;&quot;&gt;&lt;span style=&quot;color: rgb(51, 51, 51); font-family: &amp;quot;microsoft yahei&amp;quot;, helvetia, &amp;quot;pingfang sc&amp;quot;, Arial, Tahoma; text-align: left; background-color: rgb(255, 255, 255);&quot;&gt;https://ctvpc-global.ctapi.ctyun.cn/v4/eip/show&lt;/span&gt;&lt;span style=&quot;color: rgba(0, 0, 0, 0); font-family: monospace; font-size: 0px; text-align: start; text-wrap-mode: nowrap; background-color: initial;&quot;&gt;%3CmxGraphModel%3E%3Croot%3E%3CmxCell%20id%3D%220%22%2F%3E%3CmxCell%20id%3D%221%22%20parent%3D%220%22%2F%3E%3CmxCell%20id%3D%222%22%20value%3D%22%26lt%3Bb%26gt%3B%E5%9C%A8%E5%AF%B9%E5%BA%94%E8%B5%84%E6%BA%90%E6%B1%A0%E4%B8%8B%E5%88%9B%E5%BB%BAEIP%EF%BC%8C%E8%8E%B7%E5%8F%96%26lt%3B%2Fb%26gt%3B%26lt%3Bspan%20style%3D%26quot%3Bcolor%3A%20rgb(24%2C%2024%2C%2024)%3B%20font-family%3A%20%26amp%3Bquot%3Bmicrosoft%20yahei%26amp%3Bquot%3B%2C%20helvetia%2C%20%26amp%3Bquot%3Bpingfang%20sc%26amp%3Bquot%3B%2C%20Arial%2C%20Tahoma%3B%20text-align%3A%20start%3B%20background-color%3A%20rgb(255%2C%20255%2C%20255)%3B%26quot%3B%26gt%3B%26lt%3Bb%26gt%3BeipID%26lt%3B%2Fb%26gt%3B%26lt%3B%2Fspan%26gt%3B%26lt%3Bbr%26gt%3B%26lt%3Bdiv%26gt%3B%E4%BE%9D%E8%B5%96OpenAPI%3A%E8%99%9A%E6%8B%9F%E7%A7%81%E6%9C%89%E4%BA%91-%E5%88%9B%E5%BB%BAEIP%26lt%3B%2Fdiv%26gt%3B%26lt%3Bdiv%20style%3D%26quot%3B%26quot%3B%26gt%3B%26lt%3Bspan%20style%3D%26quot%3Bcolor%3A%20rgb(51%2C%2051%2C%2051)%3B%20font-family%3A%20%26amp%3Bquot%3Bmicrosoft%20yahei%26amp%3Bquot%3B%2C%20helvetia%2C%20%26amp%3Bquot%3Bpingfang%20sc%26amp%3Bquot%3B%2C%20Arial%2C%20Tahoma%3B%20text-align%3A%20left%3B%20background-color%3A%20rgb(255%2C%20255%2C%20255)%3B%26quot%3B%26gt%3Bhttps%3A%2F%2Fctvpc-global.ctapi.ctyun.cn%26lt%3B%2Fspan%26gt%3B%26lt%3Bspan%20style%3D%26quot%3Bbackground-color%3A%20rgb(255%2C%20255%2C%20255)%3B%20color%3A%20rgb(51%2C%2051%2C%2051)%3B%20font-family%3A%20%26amp%3Bquot%3Bmicrosoft%20yahei%26amp%3Bquot%3B%2C%20helvetia%2C%20%26amp%3Bquot%3Bpingfang%20sc%26amp%3Bquot%3B%2C%20Arial%2C%20Tahoma%3B%20text-align%3A%20start%3B%26quot%3B%26gt%3B%2F%26lt%3B%2Fspan%26gt%3B%26lt%3Bspan%20style%3D%26quot%3Bbackground-color%3A%20rgb(255%2C%20255%2C%20255)%3B%20color%3A%20rgb(51%2C%2051%2C%2051)%3B%20font-family%3A%20%26amp%3Bquot%3Bmicrosoft%20yahei%26amp%3Bquot%3B%2C%20helvetia%2C%20%26amp%3Bquot%3Bpingfang%20sc%26amp%3Bquot%3B%2C%20Arial%2C%20Tahoma%3B%20text-align%3A%20start%3B%26quot%3B%26gt%3Bv4%2Feip%2Fcreate%26lt%3B%2Fspan%26gt%3B%26lt%3B%2Fdiv%26gt%3B%22%20style%3D%22rounded%3D0%3BwhiteSpace%3Dwrap%3Bhtml%3D1%3B%22%20vertex%3D%221%22%20parent%3D%221%22%3E%3CmxGeometry%20x%3D%2231.25%22%20y%3D%22260%22%20width%3D%22372.5%22%20height%3D%2250%22%20as%3D%22geometry%22%2F%3E%3C%2FmxCell%3E%3C%2Froot%3E%3C%2FmxGraphModel%3E&lt;/span&gt;&lt;span style=&quot;background-color: initial; color: rgba(0, 0, 0, 0); font-family: monospace; font-size: 0px; text-align: start; text-wrap-mode: nowrap;&quot;&gt;%3CmxGraphModel%3E%3Croot%3E%3CmxCell%20id%3D%220%22%2F%3E%3CmxCell%20id%3D%221%22%20parent%3D%220%22%2F%3E%3CmxCell%20id%3D%222%22%20value%3D%22%26lt%3Bb%26gt%3B%E5%9C%A8%E5%AF%B9%E5%BA%94%E8%B5%84%E6%BA%90%E6%B1%A0%E4%B8%8B%E5%88%9B%E5%BB%BAEIP%EF%BC%8C%E8%8E%B7%E5%8F%96%26lt%3B%2Fb%26gt%3B%26lt%3Bspan%20style%3D%26quot%3Bcolor%3A%20rgb(24%2C%2024%2C%2024)%3B%20font-family%3A%20%26amp%3Bquot%3Bmicrosoft%20yahei%26amp%3Bquot%3B%2C%20helvetia%2C%20%26amp%3Bquot%3Bpingfang%20sc%26amp%3Bquot%3B%2C%20Arial%2C%20Tahoma%3B%20text-align%3A%20start%3B%20background-color%3A%20rgb(255%2C%20255%2C%20255)%3B%26quot%3B%26gt%3B%26lt%3Bb%26gt%3BeipID%26lt%3B%2Fb%26gt%3B%26lt%3B%2Fspan%26gt%3B%26lt%3Bbr%26gt%3B%26lt%3Bdiv%26gt%3B%E4%BE%9D%E8%B5%96OpenAPI%3A%E8%99%9A%E6%8B%9F%E7%A7%81%E6%9C%89%E4%BA%91-%E5%88%9B%E5%BB%BAEIP%26lt%3B%2Fdiv%26gt%3B%26lt%3Bdiv%20style%3D%26quot%3B%26quot%3B%26gt%3B%26lt%3Bspan%20style%3D%26quot%3Bcolor%3A%20rgb(51%2C%2051%2C%2051)%3B%20font-family%3A%20%26amp%3Bquot%3Bmicrosoft%20yahei%26amp%3Bquot%3B%2C%20helvetia%2C%20%26amp%3Bquot%3Bpingfang%20sc%26amp%3Bquot%3B%2C%20Arial%2C%20Tahoma%3B%20text-align%3A%20left%3B%20background-color%3A%20rgb(255%2C%20255%2C%20255)%3B%26quot%3B%26gt%3Bhttps%3A%2F%2Fctvpc-global.ctapi.ctyun.cn%26lt%3B%2Fspan%26gt%3B%26lt%3Bspan%20style%3D%26quot%3Bbackground-color%3A%20rgb(255%2C%20255%2C%20255)%3B%20color%3A%20rgb(51%2C%2051%2C%2051)%3B%20font-family%3A%20%26amp%3Bquot%3Bmicrosoft%20yahei%26amp%3Bquot%3B%2C%20helvetia%2C%20%26amp%3Bquot%3Bpingfang%20sc%26amp%3Bquot%3B%2C%20Arial%2C%20Tahoma%3B%20text-align%3A%20start%3B%26quot%3B%26gt%3B%2F%26lt%3B%2Fspan%26gt%3B%26lt%3Bspan%20style%3D%26quot%3Bbackground-color%3A%20rgb(255%2C%20255%2C%20255)%3B%20color%3A%20rgb(51%2C%2051%2C%2051)%3B%20font-family%3A%20%26amp%3Bquot%3Bmicrosoft%20yahei%26amp%3Bquot%3B%2C%20helvetia%2C%20%26amp%3Bquot%3Bpingfang%20sc%26amp%3Bquot%3B%2C%20Arial%2C%20Tahoma%3B%20text-align%3A%20start%3B%26quot%3B%26gt%3Bv4%2Feip%2Fcreate%26lt%3B%2Fspan%26gt%3B%26lt%3B%2Fdiv%26gt%3B%22%20style%3D%22rounded%3D0%3BwhiteSpace%3Dwrap%3Bhtml%3D1%3B%22%20vertex%3D%221%22%20parent%3D%221%22%3E%3CmxGeometry%20x%3D%2231.25%22%20y%3D%22260%22%20width%3D%22372.5%22%20height%3D%2250%22%20as%3D%22geometry%22%2F%3E%3C%2FmxCell%3E%3C%2Froot%3E%3C%2FmxGraphModel%3E&lt;/span&gt;&lt;/div&gt;" style="rounded=0;whiteSpace=wrap;html=1;" vertex="1" parent="1">
          <mxGeometry x="31.25" y="330" width="372.5" height="50" as="geometry" />
        </mxCell>
        <mxCell id="kfRrEzEhlHXIg2XS9ukm-31" value="" style="rounded=0;whiteSpace=wrap;html=1;" vertex="1" parent="1">
          <mxGeometry x="25" y="410" width="385" height="260" as="geometry" />
        </mxCell>
      </root>
    </mxGraphModel>
  </diagram>
</mxfile>
